HIERARCHY
ROOT root
{
	OFFSET	0	13.1	24.9
	CHANNELS 6  Xposition Yposition Zposition Xrotation Yrotation Zrotation
	JOINT spine_1
	{
		OFFSET	0	9.99999	0
		CHANNELS 3  Xrotation Yrotation Zrotation
		JOINT spine_2
		{
			OFFSET	0	112	-10
			CHANNELS 3  Xrotation Yrotation Zrotation
			JOINT spine_3
			{
				OFFSET	0	206.5	19.3
				CHANNELS 3  Xrotation Yrotation Zrotation
				JOINT spine_4
				{
					OFFSET	0	110.4	14.6
					CHANNELS 3  Xrotation Yrotation Zrotation
					JOINT neck_1
					{
						OFFSET	0	71.8	-50.3
						CHANNELS 3  Xrotation Yrotation Zrotation
						JOINT neck_2
						{
							OFFSET	0	86.2	-25.8
							CHANNELS 3  Xrotation Yrotation Zrotation
							JOINT head_ee
							{
								OFFSET	0	179.8	-8.7
								CHANNELS 3  Xrotation Yrotation Zrotation
								End Site
								{
									OFFSET	1	0	0
								}
							}
						}
					}
					JOINT left_clavicle
					{
						OFFSET	-43.2	22.4	-70.8
						CHANNELS 3  Xrotation Yrotation Zrotation
						JOINT left_shoulder
						{
							OFFSET	-93.9	-5.79999	48.7
							CHANNELS 3  Xrotation Yrotation Zrotation
							JOINT left_elbow
							{
								OFFSET	-291.4	-30.8	15.2
								CHANNELS 3  Xrotation Yrotation Zrotation
								JOINT left_lowarm_twist
								{
									OFFSET	-110.7	-3.89999	13.6
									CHANNELS 3  Xrotation Yrotation Zrotation
									JOINT left_hand
									{
										OFFSET	-110.7	-3.89999	13.6
										CHANNELS 3  Xrotation Yrotation Zrotation
										JOINT left_ee
										{
											OFFSET	-80.8	-5.10001	12.1
											CHANNELS 3  Xrotation Yrotation Zrotation
											End Site
											{
												OFFSET	1	0	0
											}
										}
									}
								}
							}
						}
					}
					JOINT right_clavicle
					{
						OFFSET	43.2	22.4	-70.8
						CHANNELS 3  Xrotation Yrotation Zrotation
						JOINT right_shoulder
						{
							OFFSET	93.9	-5.79999	48.7
							CHANNELS 3  Xrotation Yrotation Zrotation
							JOINT right_elbow
							{
								OFFSET	291.4	-30.8	15.2
								CHANNELS 3  Xrotation Yrotation Zrotation
								JOINT right_lowarm_twist
								{
									OFFSET	110.7	-3.89999	13.6
									CHANNELS 3  Xrotation Yrotation Zrotation
									JOINT right_hand
									{
										OFFSET	110.7	-3.89999	13.6
										CHANNELS 3  Xrotation Yrotation Zrotation
										JOINT right_ee
										{
											OFFSET	80.8	-5.10001	12.1
											CHANNELS 3  Xrotation Yrotation Zrotation
											End Site
											{
												OFFSET	1	0	0
											}
										}
									}
								}
							}
						}
					}
				}
			}
		}
	}
	JOINT left_hip
	{
		OFFSET	-82.8	-127.5	0.300001
		CHANNELS 3  Xrotation Yrotation Zrotation
		JOINT left_knee
		{
			OFFSET	-28.2	-396.7	2.2
			CHANNELS 3  Xrotation Yrotation Zrotation
			JOINT left_ankle
			{
				OFFSET	-11.7	-411.3	35.4
				CHANNELS 3  Xrotation Yrotation Zrotation
				JOINT left_toes
				{
					OFFSET	0	-60	-88.6
					CHANNELS 3  Xrotation Yrotation Zrotation
					JOINT left_foot_ee
					{
						OFFSET	-22.5	-16.5	-42.2
						CHANNELS 3  Xrotation Yrotation Zrotation
						End Site
						{
							OFFSET	1	0	0
						}
					}
				}
			}
		}
	}
	JOINT right_hip
	{
		OFFSET	82.8	-127.5	0.300001
		CHANNELS 3  Xrotation Yrotation Zrotation
		JOINT right_knee
		{
			OFFSET	28.2	-396.7	2.2
			CHANNELS 3  Xrotation Yrotation Zrotation
			JOINT right_ankle
			{
				OFFSET	11.7	-411.3	35.4
				CHANNELS 3  Xrotation Yrotation Zrotation
				JOINT right_toes
				{
					OFFSET	0	-60	-88.6
					CHANNELS 3  Xrotation Yrotation Zrotation
					JOINT right_foot_ee
					{
						OFFSET	22.5	-16.5	-42.2
						CHANNELS 3  Xrotation Yrotation Zrotation
						End Site
						{
							OFFSET	1	0	0
						}
					}
				}
			}
		}
	}
}
MOTION
Frames: 14
Frame Time: 0.02
3574.42 741.953 -1474.73 -9.59385298684 55.7523930201 5.40865380373 2.1967 0.388413 0.713898 2.19692 0.3422 0.737165 2.20136 0.209959 0.785128 2.20065 0.331317 0.74212 -14.017 1.50189 2.3928 -14.0023 1.40367 2.74305 -0.0 0.0 -0.0 9.43991 25.178 15.7026 -0.0671162 -35.9228 62.7256 2.59614 -52.1236 1.26986 -39.8737 -2.93774 4.05157 4.46074 25.0168 38.4728 -0.0 0.0 -0.0 7.55357 -12.4107 -14.2295 -37.3627 35.4678 -52.4676 0.254092 7.17425 -0.0159289 -74.9868 7.18318 -5.3191 -2.4809 27.8692 28.5466 0.0 0.0 0.0 5.59648 -1.85983 4.63735 -2.99065 0.111531 0.445366 27.0032 0.671544 -3.57749 -15.2931 0.0 0.0 -0.0 0.0 -0.0 23.6281 -16.2041 10.5061 -14.38 -0.320242 -2.17777 13.8404 17.3672 2.13954 -16.7134 0.0 0.0 0.0 0.0 0.0 
3555.57637744 733.799 -1501.56006315 -8.85934591802 56.6385685482 4.93824311956 2.02298 0.416125 0.465365 2.02302 0.385669 0.490901 2.02637 0.293559 0.55095 2.02614 0.376887 0.497675 -11.9007 1.58978 1.31996 -11.8983 2.16103 1.71293 -0.0 0.0 -0.0 7.21423 24.4649 12.6475 -0.511071 -34.7898 67.305 2.68534 -53.0568 1.34071 -38.245 -2.76648 3.93178 3.77867 22.7359 33.0761 -0.0 0.0 -0.0 7.64299 -11.4591 -14.4476 -38.8033 34.902 -50.7194 0.320714 9.02746 -0.0253182 -75.8129 7.28869 -5.3165 -2.32369 28.0138 27.48 0.0 0.0 0.0 4.62996 -0.514878 4.25273 -5.82631 0.195662 0.872376 32.1008 1.89048 -4.1185 -15.6723 0.0 0.0 -0.0 0.0 -0.0 20.79 -17.3449 10.3537 -16.9613 -0.319438 -2.57378 21.7487 18.078 3.24931 -12.0055 0.0 0.0 0.0 0.0 0.0 
3555.67951451 733.799 -1501.63220444 -8.80825486946 56.4212236874 4.87699573775 2.02298 0.416125 0.465365 2.02302 0.385669 0.490901 2.02637 0.293559 0.55095 2.02614 0.376887 0.497675 -11.9007 1.58978 1.31996 -11.8983 2.16103 1.71293 -0.0 0.0 -0.0 7.21423 24.4649 12.6475 -0.511071 -34.7898 67.305 2.68534 -53.0568 1.34071 -38.245 -2.76648 3.93178 3.77867 22.7359 33.0761 -0.0 0.0 -0.0 7.64299 -11.4591 -14.4476 -38.8033 34.902 -50.7194 0.320714 9.02746 -0.0253182 -75.8129 7.28869 -5.3165 -2.32369 28.0138 27.48 0.0 0.0 0.0 4.62996 -0.514878 4.25273 -5.82631 0.195662 0.872376 32.1008 1.89048 -4.1185 -15.6723 0.0 0.0 -0.0 0.0 -0.0 20.79 -17.3449 10.3537 -16.9613 -0.319438 -2.57378 21.7487 18.078 3.24931 -12.0055 0.0 0.0 0.0 0.0 0.0 
3551.84812451 729.909 -1506.30567477 -8.77403937872 56.6216344249 4.80308452357 2.14189 0.478569 0.505589 2.14192 0.445428 0.535016 2.14614 0.345919 0.604141 2.1459 0.43699 0.54193 -11.8321 1.11966 1.88603 -11.8225 0.901753 2.1257 -0.0 0.0 -0.0 6.83329 25.1453 12.0474 -0.579999 -35.2994 68.2284 2.71799 -53.3886 1.36686 -38.7016 -2.81415 3.96586 3.61076 22.665 31.8663 -0.0 0.0 -0.0 7.63939 -10.8529 -14.4787 -38.7548 34.96 -50.372 0.312307 8.79456 -0.0240159 -75.2978 7.22292 -5.3183 -2.48097 27.9213 28.5646 0.0 0.0 0.0 4.82419 -1.02478 4.02998 -6.09505 0.202537 0.913045 33.3294 1.80734 -4.24344 -16.4076 0.0 0.0 -0.0 0.0 -0.0 20.2711 -17.594 10.6965 -17.3704 -0.317673 -2.63653 22.7675 19.7493 3.42977 -11.1993 0.0 0.0 0.0 0.0 0.0 
3548.4313838 727.671 -1515.96785552 -8.3451068988 57.782672842 4.27298931258 2.05737 0.534815 0.53079 2.05739 0.499956 0.563746 2.06238 0.393706 0.642464 2.06213 0.490229 0.572225 -10.6546 1.70848 1.82586 -10.6471 2.00821 2.2134 -0.0 0.0 -0.0 6.17344 24.5324 11.1882 -1.20347 -34.9368 68.2298 2.71686 -53.3772 1.36595 -37.9478 -2.73561 3.90941 3.42387 22.2754 30.4772 -0.0 0.0 -0.0 7.94582 -10.8099 -15.029 -38.897 34.9079 -50.3109 0.28257 7.96848 -0.0196812 -75.4566 7.24319 -5.31781 -2.4111 27.5733 27.9496 0.0 0.0 0.0 4.56945 -1.52153 3.69473 -7.09203 0.226369 1.06418 34.3272 2.00591 -4.34135 -15.7542 0.0 0.0 -0.0 0.0 -0.0 19.4641 -17.8887 10.5088 -17.7626 -0.315561 -2.69666 22.9369 18.5868 3.41803 -10.6453 0.0 0.0 0.0 0.0 0.0 
3546.40759981 724.707 -1524.64622417 -8.33595951445 58.7005340437 4.41587492291 2.06675 0.502713 0.545875 2.0668 0.466959 0.576757 2.07156 0.359045 0.649449 2.07127 0.457105 0.584597 -10.1369 1.5854 1.51638 -10.132 1.96357 1.87401 -0.0 0.0 -0.0 5.6663 24.6447 10.4803 -1.44604 -34.9591 68.8208 2.55585 -51.6887 1.23815 -37.852 -2.72567 3.90216 3.37356 22.5952 30.1932 -0.0 0.0 -0.0 8.3253 -10.4072 -15.7407 -38.1344 35.3076 -50.2916 0.281063 7.92653 -0.0194728 -75.3905 7.23476 -5.31802 -2.4237 27.435 27.9921 0.0 0.0 0.0 4.34865 -0.945982 3.58829 -8.2841 0.251405 1.2454 34.4229 2.43334 -4.34881 -15.8434 0.0 0.0 -0.0 0.0 -0.0 18.4882 -18.0578 9.96192 -18.0195 -0.313953 -2.73606 26.4489 18.7333 3.86385 -9.13094 0.0 0.0 0.0 0.0 0.0 
3538.25330733 719.694 -1530.91331106 -8.03434220199 58.8270353324 3.92360967613 1.99958 0.502052 0.66001 1.99971 0.459037 0.690618 2.00531 0.330482 0.760557 2.00478 0.446447 0.698823 -9.2251 1.36191 1.31866 -9.22113 1.64752 1.61512 -0.0 0.0 -0.0 5.41272 24.4228 10.1436 -2.40089 -33.2546 69.0884 2.47953 -50.8416 1.17861 -38.0403 -2.7452 3.91639 3.13887 22.7261 28.6122 -0.0 0.0 -0.0 8.76276 -9.77001 -16.5877 -37.6313 35.9444 -49.9498 0.274781 7.75156 -0.018616 -75.6923 7.2733 -5.31697 -2.39199 27.3919 27.7519 0.0 0.0 0.0 4.9872 -2.39027 3.37085 -9.34516 0.270514 1.40709 36.0931 1.74659 -4.51266 -15.6875 0.0 0.0 -0.0 0.0 -0.0 17.6819 -18.2453 10.7065 -17.9169 -0.314616 -2.72032 29.9252 21.059 4.35931 -8.61294 0.0 0.0 0.0 0.0 0.0 
3530.89322121 713.963 -1540.0895198 -7.7055325577 59.4135103033 3.76026290532 1.92354 0.29291 0.758229 1.92382 0.24407 0.77533 1.92716 0.102851 0.806303 1.92633 0.228897 0.779944 -8.58065 0.50066 0.077293 -8.58076 0.882764 0.189499 -0.0 0.0 -0.0 5.00934 23.8687 9.61052 -4.08595 -33.0433 68.8798 2.25999 -48.2212 1.01155 -37.5209 -2.69145 3.87698 2.97522 21.9587 27.3363 -0.0 0.0 -0.0 8.88459 -8.11115 -16.943 -38.3744 35.6679 -50.2573 0.291047 8.20433 -0.0208737 -76.1185 7.3277 -5.31515 -2.51285 27.5304 28.6605 0.0 0.0 0.0 4.32683 0.280823 3.21874 -9.80438 0.277855 1.47718 38.9921 1.46981 -4.77894 -15.4688 0.0 0.0 -0.0 0.0 -0.0 16.7298 -18.7088 11.6447 -19.3446 -0.302861 -2.93906 34.7466 21.7425 4.91936 -9.08231 0.0 0.0 0.0 0.0 0.0 
3526.65190393 715.963 -1547.7199582 -8.176202893 59.4216082293 4.22219912742 1.88586 0.199149 0.827891 1.88623 0.146067 0.838885 1.88839 -0.00544871 0.851488 1.8874 0.129091 0.841664 -7.85921 0.139723 -0.277028 -7.85898 0.457115 -0.244794 -0.0 0.0 -0.0 4.96301 24.8054 9.50996 -5.85117 -31.7873 68.7018 2.29565 -48.6662 1.03823 -39.1379 -2.85995 3.99806 2.61111 23.6023 25.3068 -0.0 0.0 -0.0 9.35412 -7.18934 -17.9033 -38.6615 35.5162 -49.9683 0.251641 7.10576 -0.0156242 -76.7676 7.41053 -5.31158 -2.55991 27.5583 29.0069 0.0 0.0 0.0 5.13439 -0.265845 2.8385 -11.3894 0.298871 1.71946 40.3291 2.4266 -4.89077 -15.675 0.0 0.0 -0.0 0.0 -0.0 16.6115 -18.5898 11.1427 -18.8159 -0.30785 -2.85809 35.0638 24.7905 5.09822 -9.21934 0.0 0.0 0.0 0.0 0.0 
3508.24967932 712.712 -1559.00857178 -8.67437076814 61.8460545391 4.38132395 1.83132 0.375859 0.963486 1.83178 0.313791 0.985447 1.83726 0.132647 1.02565 1.83591 0.292958 0.991839 -8.44923 -0.636729 -1.77694 -8.44032 0.0541102 -1.89693 -0.0 0.0 -0.0 3.75234 24.3436 7.87197 -9.49159 -30.5433 69.0328 1.97696 -44.3967 0.806785 -38.89 -2.83389 3.9798 2.72663 23.7704 26.0969 -0.0 0.0 -0.0 9.577 -6.15733 -18.4139 -38.781 35.2276 -50.3733 0.263784 7.44488 -0.017162 -77.328 7.48198 -5.30774 -2.68348 27.483 29.8712 0.0 0.0 0.0 5.25967 0.421513 2.36264 -14.2326 0.319749 2.15516 40.818 2.1935 -4.93315 -12.6614 0.0 0.0 -0.0 0.0 -0.0 16.1095 -19.0667 11.3384 -18.405 -0.311211 -2.79513 37.8777 25.2197 5.40896 -6.99587 0.0 0.0 0.0 0.0 0.0 
3488.25762473 711.53 -1569.86011241 -7.49884598787 62.6057990634 3.51525298729 1.78446 0.587241 1.04486 1.78492 0.519568 1.0801 1.79487 0.317387 1.15578 1.79335 0.495926 1.09116 -6.06722 -1.03596 -2.00941 -6.05613 -0.435446 -2.22154 -0.0 0.0 -0.0 3.09143 25.6799 6.99472 -12.3277 -28.6805 68.817 1.95661 -44.1005 0.792584 -40.7311 -3.02925 4.11267 2.08046 25.4363 22.3803 -0.0 0.0 -0.0 9.87724 -5.95832 -19.0142 -38.8786 34.4272 -51.3825 0.191885 5.43003 -0.00909944 -77.5644 7.51211 -5.30591 -2.73517 27.5012 30.2513 0.0 0.0 0.0 5.23813 2.21037 2.0576 -21.0734 0.281335 3.20345 40.7634 4.89557 -4.92322 -9.0579 0.0 0.0 -0.0 0.0 -0.0 14.8628 -22.4626 11.8525 -20.2279 -0.29286 -3.07422 36.544 26.2021 5.32929 -7.55674 0.0 0.0 0.0 0.0 0.0 
3493.70835215 711.53 -1574.52640826 -6.77990369539 59.4270738632 2.69369753621 1.78446 0.587241 1.04486 1.78492 0.519568 1.0801 1.79487 0.317387 1.15578 1.79335 0.495926 1.09116 -6.06722 -1.03596 -2.00941 -6.05613 -0.435446 -2.22154 -0.0 0.0 -0.0 3.09143 25.6799 6.99472 -12.3277 -28.6805 68.817 1.95661 -44.1005 0.792584 -40.7311 -3.02925 4.11267 2.08046 25.4363 22.3803 -0.0 0.0 -0.0 9.87724 -5.95832 -19.0142 -38.8786 34.4272 -51.3825 0.191885 5.43003 -0.00909944 -77.5644 7.51211 -5.30591 -2.73517 27.5012 30.2513 0.0 0.0 0.0 5.23813 2.21037 2.0576 -21.0734 0.281335 3.20345 40.7634 4.89557 -4.92322 -9.0579 0.0 0.0 -0.0 0.0 -0.0 14.8628 -22.4626 11.8525 -20.2279 -0.29286 -3.07422 36.544 26.2021 5.32929 -7.55674 0.0 0.0 0.0 0.0 0.0 
3456.49542196 707.27 -1582.56801043 -5.79876920658 71.6083660591 2.53309241025 1.72132 0.487345 1.0835 1.72188 0.417416 1.11231 1.73013 0.209772 1.16938 1.72843 0.391809 1.12158 -4.16008 -0.586926 -2.93416 -4.13428 1.16743 -3.11033 -0.0 0.0 -0.0 0.885882 24.3363 3.99888 -13.0426 -24.4335 72.5593 1.82796 -42.1574 0.704622 -42.9416 -3.26929 4.26383 1.39698 29.5397 19.3268 -0.0 0.0 -0.0 10.3606 -7.11291 -19.8508 -37.1752 35.7028 -53.2288 0.195837 5.54116 -0.00947722 -76.5654 7.38474 -5.31279 -2.87023 26.1131 30.7714 0.0 0.0 0.0 5.80265 9.0767 1.04486 -35.0423 -0.181849 5.29191 40.8411 6.57108 -4.932 -4.36126 0.0 0.0 -0.0 0.0 -0.0 11.7169 -28.2319 13.0154 -23.3603 -0.240623 -3.55198 37.5603 27.7687 5.52612 -5.71889 0.0 0.0 0.0 0.0 0.0 
3459.60645193 707.27 -1585.87446355 -5.34490817812 69.9881791014 2.05254232829 1.72132 0.487345 1.0835 1.72188 0.417416 1.11231 1.73013 0.209772 1.16938 1.72843 0.391809 1.12158 -4.16008 -0.586926 -2.93416 -4.13428 1.16743 -3.11033 -0.0 0.0 -0.0 0.885882 24.3363 3.99888 -13.0426 -24.4335 72.5593 1.82796 -42.1574 0.704622 -42.9416 -3.26929 4.26383 1.39698 29.5397 19.3268 -0.0 0.0 -0.0 10.3606 -7.11291 -19.8508 -37.1752 35.7028 -53.2288 0.195837 5.54116 -0.00947722 -76.5654 7.38474 -5.31279 -2.87023 26.1131 30.7714 0.0 0.0 0.0 5.80265 9.0767 1.04486 -35.0423 -0.181849 5.29191 40.8411 6.57108 -4.932 -4.36126 0.0 0.0 -0.0 0.0 -0.0 11.7169 -28.2319 13.0154 -23.3603 -0.240623 -3.55198 37.5603 27.7687 5.52612 -5.71889 0.0 0.0 0.0 0.0 0.0 
